<?xml version="1.0" encoding="utf-8"?>
<!-- Generator: Adobe Illustrator 25.2.0, SVG Export Plug-In . SVG Version: 6.00 Build 0)  -->
<svg version="1.1" id="Layer_1" xmlns="http://www.w3.org/2000/svg" xmlns:xlink="http://www.w3.org/1999/xlink" x="0px" y="0px"
	 viewBox="0 0 1024 1024" style="enable-background:new 0 0 1024 1024;" xml:space="preserve">
<style type="text/css">
	.st0{fill:#FFFFFF;}
	.st1{fill:none;stroke:#000000;stroke-width:12.4019;stroke-miterlimit:10;}
	.st2{fill:#EE2724;stroke:#000000;stroke-width:13.0345;stroke-miterlimit:10;}
	.st3{fill:#FFFFFF;stroke:#000000;stroke-width:13.7343;stroke-miterlimit:10;}
	.st4{fill:#990000;stroke:#000000;stroke-width:6.7058;stroke-miterlimit:10;}
	.st5{fill:url(#XMLID_20_);stroke:#000000;stroke-width:7.0054;stroke-miterlimit:10;}
	.st6{stroke:#000000;stroke-width:12.4019;stroke-miterlimit:10;}
	.st7{fill:#65C8D0;}
	.st8{fill:#1A1A1A;}
</style>
<circle id="XMLID_4_" class="st0" cx="512" cy="824.06" r="100"/>
<g id="XMLID_2_">
	<path id="XMLID_5_" class="st1" d="M324.28,1004.31"/>
	<path id="XMLID_16_" class="st1" d="M199.63,1077.63"/>
	<path id="XMLID_15_" class="st1" d="M774.55,1077.63"/>
	<path id="XMLID_12_" class="st2" d="M512,719.92c59.11,0,107.03,46.62,107.03,104.14H882c0-198.82-165.65-360-370-360
		s-370,161.18-370,360h262.97C404.97,766.55,452.89,719.92,512,719.92z"/>
	<path id="XMLID_13_" class="st3" d="M620.48,820c0,63-48.57,114.08-108.48,114.08S403.52,883,403.52,820H137
		c0,75.95,20.43,146.86,53.12,200h638.39C866.57,966.86,887,895.95,887,820H620.48z"/>
</g>
<path id="XMLID_8_" class="st1" d="M1060,107.27"/>
<g id="XMLID_9_">
	<path id="XMLID_10_" class="st4" d="M795.68,126.93c-55.47,14.77-143.4,111.6-198.17,128.69C455.94,299.8,3,282.06,3,282.06v723.29
		c0,2.64,0,19.1,33.93,17.55H188.5c-35.85-56.62-56.56-123.35-56.56-194.8c0-204.93,170.16-371.05,380.05-371.05
		S892.05,623.17,892.05,828.1c0,71.45-20.71,138.18-56.56,194.8h151.57c18.66,0,33.93-14.91,33.93-33.13V119.91
		C1021,119.91,850.03,112.46,795.68,126.93z"/>
	<linearGradient id="XMLID_20_" gradientUnits="userSpaceOnUse" x1="194.3254" y1="-165.3145" x2="750.2769" y2="390.637">
		<stop  offset="0" style="stop-color:#CC0000"/>
		<stop  offset="0.0476" style="stop-color:#C20100"/>
		<stop  offset="0.2334" style="stop-color:#9F0300"/>
		<stop  offset="0.4219" style="stop-color:#830400"/>
		<stop  offset="0.6116" style="stop-color:#700500"/>
		<stop  offset="0.8032" style="stop-color:#640600"/>
		<stop  offset="1" style="stop-color:#600600"/>
	</linearGradient>
	<path id="XMLID_11_" class="st5" d="M987.07,4H36.93C18.27,4,3,20.27,3,57.16V216.6v63.56c0,0,452.94,19.37,594.51-28.85
		c54.77-18.65,142.7-108.26,198.17-124.38c54.35-15.79,225.32-7.02,225.32-7.02V40.16C1021,20.27,1005.73,4,987.07,4z"/>
</g>
<g id="XMLID_18_">
	<ellipse id="XMLID_3_" class="st6" cx="512" cy="824.06" rx="54.28" ry="57.38"/>
	<ellipse id="XMLID_6_" class="st0" cx="512" cy="824.06" rx="27.14" ry="28.69"/>
</g>
<g id="XMLID_17_">
	<g id="XMLID_1_">
		<ellipse id="XMLID_29_" class="st7" cx="141.82" cy="137.46" rx="84.43" ry="89.27"/>
		<path id="XMLID_26_" class="st8" d="M226.25,137.46c0,0-0.01,0.53-0.03,1.57c-0.05,1.03,0.01,2.57-0.17,4.56
			c-0.22,3.99-0.81,9.85-2.62,17.1c-0.88,3.63-2.13,7.58-3.74,11.79c-1.67,4.18-3.73,8.62-6.36,13.12
			c-5.24,9.01-12.87,18.29-23.14,26.18c-5.12,3.95-10.99,7.4-17.41,10.21c-6.41,2.85-13.46,4.89-20.88,6.01
			c-0.92,0.17-1.86,0.27-2.8,0.36c-0.94,0.1-1.88,0.2-2.83,0.3c-0.95,0.05-1.9,0.1-2.86,0.15l-1.44,0.07l-1.47,0
			c-0.94,0-1.88,0-2.83,0c-0.96-0.03-1.97-0.1-2.95-0.15c-2-0.06-3.93-0.36-5.91-0.55c-7.85-1.1-15.8-3.24-23.33-6.74
			c-1.91-0.82-3.73-1.83-5.59-2.79c-1.81-1.06-3.65-2.07-5.4-3.25c-1.8-1.11-3.49-2.39-5.22-3.63c-1.66-1.33-3.37-2.61-4.95-4.06
			c-3.26-2.79-6.24-5.92-9.05-9.23c-2.83-3.29-5.39-6.83-7.73-10.54c-9.45-14.79-14.44-32.66-14.46-50.48
			c0.01-17.82,5-35.7,14.45-50.49c2.33-3.71,4.9-7.25,7.73-10.54c2.8-3.31,5.8-6.43,9.05-9.24c1.58-1.45,3.3-2.73,4.96-4.06
			c1.73-1.24,3.42-2.52,5.22-3.63c1.75-1.18,3.6-2.2,5.4-3.25c1.87-0.95,3.69-1.97,5.6-2.79c7.53-3.51,15.48-5.64,23.33-6.74
			c1.98-0.2,3.93-0.49,5.89-0.55c0.98-0.05,1.95-0.12,2.92-0.15c0.97,0,1.94,0,2.91-0.01c0.51,0,0.91-0.01,1.5,0.01l1.4,0.07
			c0.93,0.05,1.86,0.1,2.79,0.15c0.96,0.1,1.91,0.2,2.87,0.3c0.95,0.09,1.9,0.2,2.82,0.36c7.42,1.12,14.47,3.16,20.88,6.02
			c6.42,2.81,12.29,6.26,17.41,10.21c10.27,7.89,17.89,17.18,23.13,26.19c2.64,4.5,4.69,8.94,6.36,13.12
			c1.61,4.21,2.87,8.16,3.74,11.79c1.81,7.25,2.4,13.12,2.62,17.1c0.18,1.99,0.12,3.53,0.17,4.56
			C226.24,136.93,226.25,137.46,226.25,137.46z M226.25,137.46c0,0-0.01-0.53-0.04-1.57c-0.05-1.03-0.01-2.57-0.19-4.56
			c-0.26-3.98-0.83-9.85-2.74-17.07c-0.93-3.61-2.24-7.53-3.9-11.7c-1.71-4.15-3.93-8.48-6.66-12.88
			c-5.46-8.76-13.21-17.81-23.63-25.03c-5.17-3.64-11.02-6.74-17.35-9.19c-6.33-2.44-13.19-4.04-20.31-4.74
			c-0.89-0.11-1.78-0.17-2.66-0.21c-0.89-0.05-1.77-0.1-2.67-0.14c-0.93,0-1.86,0-2.79,0l-1.4,0l-1.31,0.07
			c-0.91,0.05-1.83,0.1-2.75,0.15c-0.92,0.07-1.83,0.19-2.75,0.28c-1.84,0.15-3.67,0.53-5.51,0.8c-7.32,1.4-14.59,3.83-21.43,7.36
			c-1.74,0.83-3.38,1.85-5.07,2.8c-1.63,1.05-3.29,2.06-4.86,3.22c-1.61,1.09-3.12,2.35-4.67,3.55c-1.47,1.29-3,2.54-4.39,3.93
			c-1.45,1.34-2.8,2.78-4.18,4.21c-1.3,1.49-2.66,2.94-3.87,4.53c-2.51,3.09-4.77,6.4-6.81,9.86c-2.07,3.43-3.84,7.06-5.41,10.78
			c-1.62,3.7-2.89,7.55-3.96,11.45c-1.1,3.9-1.82,7.91-2.4,11.93l-0.36,3.03c-0.11,1.01-0.15,1.99-0.23,2.98
			c-0.19,1.86-0.15,4.28-0.22,6.16c0.05,4.07,0.24,8.14,0.8,12.17c0.09,1.01,0.31,2.01,0.46,3.01c0.17,1,0.31,2.01,0.55,3l0.63,2.98
			l0.76,2.94c1.07,3.91,2.35,7.76,3.96,11.46c1.55,3.72,3.33,7.35,5.4,10.78c2.04,3.45,4.3,6.77,6.81,9.86
			c1.21,1.59,2.57,3.04,3.87,4.53c1.38,1.42,2.72,2.88,4.17,4.21c1.4,1.4,2.92,2.64,4.4,3.93c1.55,1.2,3.05,2.46,4.67,3.55
			c1.57,1.17,3.23,2.17,4.86,3.22c1.69,0.95,3.33,1.97,5.07,2.8c6.84,3.53,14.11,5.96,21.44,7.36c1.84,0.27,3.68,0.65,5.48,0.8
			c0.91,0.09,1.8,0.21,2.72,0.28c0.94,0.05,1.89,0.1,2.83,0.15l1.35,0.07l1.37,0c0.91,0,1.82,0,2.72,0c0.9-0.05,1.8-0.1,2.7-0.15
			c0.9-0.04,1.8-0.09,2.68-0.21c7.12-0.7,13.99-2.3,20.31-4.75c6.32-2.45,12.18-5.55,17.35-9.19c10.43-7.22,18.17-16.28,23.63-25.04
			c2.73-4.4,4.95-8.73,6.66-12.88c1.67-4.17,2.98-8.09,3.9-11.7c1.91-7.22,2.48-13.09,2.74-17.07c0.19-1.99,0.14-3.53,0.19-4.56
			C226.23,137.99,226.25,137.46,226.25,137.46z"/>
	</g>
	<ellipse id="XMLID_7_" class="st0" cx="173.79" cy="97.84" rx="15.36" ry="16.24"/>
	<ellipse id="XMLID_14_" class="st0" cx="193.69" cy="128.49" rx="4.54" ry="4.8"/>
</g>
</svg>
